# Blender 4.4.3
# www.blender.org
mtllib Wood.mtl
o Leaf
v 10.846600 20.303200 -5.814362
v 6.873220 24.213499 -4.222742
v 5.909520 18.568501 -3.318801
v 8.060060 15.638199 -7.835391
v 2.364550 16.665400 -7.492831
v 1.631040 21.965200 -5.260091
v 9.619360 24.771900 -9.297992
v 10.352900 19.472099 -11.530702
v 6.074390 22.868797 -13.472002
v 5.110690 17.223801 -12.568101
v 1.137340 21.134100 -10.976501
v 3.923850 25.799101 -8.955432
v -8.090400 21.510099 5.794979
v -0.851714 21.036800 6.864859
v -3.502640 25.404100 1.604988
v -4.994370 14.990801 7.091479
v 1.506830 14.855700 3.702779
v 2.428770 21.291500 0.311943
v -9.283670 22.057301 -1.419172
v -6.925120 15.876200 -4.581252
v -10.205600 15.621500 1.971659
v -4.274190 11.508900 0.678615
v 0.313567 15.403000 -3.511371
v -2.782460 21.922199 -4.807871
v -12.044300 16.722300 6.658238
v -10.864900 19.272200 2.910269
v -14.061900 15.871500 2.517499
v -12.727500 12.307900 5.248869
v -11.970300 12.129500 0.629856
v -10.819100 16.433701 -0.815481
v -7.554560 17.810400 5.884388
v -8.705710 13.506201 7.329719
v -5.462940 14.068400 3.996749
v -8.659970 10.667700 3.603979
v -7.480550 13.217600 -0.143999
v -6.797360 17.632000 1.265369
v 0.026068 13.349300 1.175909
v 1.761980 15.272300 2.181229
v 2.727270 13.256200 0.530264
v 1.364900 10.914400 1.148089
v 3.928250 11.332500 2.136209
v 4.173660 14.025900 2.774719
v -0.196977 14.176500 3.819409
v -0.442385 11.483100 3.180899
v 1.004000 12.252800 5.425349
v 1.969300 10.236700 3.774389
v 3.705200 12.159700 4.779709
v 2.366370 14.594600 4.807529
v 13.919200 11.397899 -10.975901
v 11.569000 9.366169 -12.603201
v 11.644900 12.814399 -13.238901
v 12.251300 8.876609 -9.198111
v 8.946050 8.734769 -10.362301
v 8.571310 11.168399 -12.859701
v 12.374100 14.455899 -10.226701
v 9.751220 13.824499 -7.985801
v 12.748900 12.022199 -7.729341
v 9.675270 10.376299 -7.350111
v 7.400950 11.792699 -9.613081
v 9.068930 14.314099 -11.390901
v 2.003840 21.411800 -4.552812
v 4.549630 22.668800 -2.180352
v 3.042160 19.327499 -1.677461
v -0.529795 19.531000 -2.620651
v 0.450123 19.625700 0.945955
v 3.589380 21.565001 1.218078
v 1.909330 24.937401 -3.434342
v -1.229920 22.998100 -3.706462
v -0.682710 25.235500 -0.810927
v -2.190170 21.894199 -0.308038
v 0.355617 23.151300 2.064428
v 2.889250 25.032101 0.132264
vn 0.4301 0.0707 0.9000
vn 0.5204 -0.5817 0.6252
vn -0.1249 -0.8584 0.4975
vn -0.6140 -0.3771 0.6934
vn -0.2710 0.1971 0.9422
vn 0.6140 0.3771 -0.6934
vn 0.2710 -0.1971 -0.9422
vn -0.4301 -0.0707 -0.9000
vn -0.5204 0.5817 -0.6252
vn 0.1249 0.8584 -0.4975
vn 0.7123 0.5426 0.4451
vn 0.8584 -0.5129 0.0004
vn -0.1857 -0.9607 -0.2062
vn -0.9770 -0.1819 0.1108
vn -0.4221 0.7472 0.5134
vn 0.9770 0.1819 -0.1108
vn 0.4221 -0.7472 -0.5134
vn -0.7123 -0.5426 -0.4451
vn -0.8584 0.5129 -0.0004
vn 0.1857 0.9607 0.2062
vn -0.0469 0.7568 0.6520
vn -0.1366 0.1304 0.9820
vn 0.4407 -0.2698 0.8562
vn 0.8872 0.1091 0.4484
vn 0.5858 0.7436 0.3222
vn -0.8872 -0.1091 -0.4484
vn -0.5858 -0.7436 -0.3222
vn 0.0469 -0.7568 -0.6520
vn 0.1366 -0.1304 -0.9820
vn -0.4407 0.2698 -0.8562
vn -0.5541 0.8182 0.1537
vn -0.6993 -0.1953 0.6877
vn 0.2348 -0.8430 0.4841
vn 0.9573 -0.2297 -0.1758
vn 0.4697 0.7969 -0.3799
vn -0.9573 0.2297 0.1758
vn -0.4697 -0.7969 0.3799
vn 0.5541 -0.8182 -0.1537
vn 0.6993 0.1953 -0.6877
vn -0.2348 0.8430 -0.4841
vn -0.7235 0.6550 0.2180
vn -0.8989 -0.0008 0.4382
vn -0.8919 -0.4332 -0.1295
vn -0.7122 -0.0447 -0.7005
vn -0.6081 0.6278 -0.4858
vn 0.7122 0.0447 0.7005
vn 0.6081 -0.6278 0.4858
vn 0.7235 -0.6550 -0.2180
vn 0.8989 0.0008 -0.4382
vn 0.8919 0.4332 0.1295
vn -0.1108 0.8376 0.5350
vn -0.3946 -0.2235 0.8913
vn -0.3833 -0.9232 -0.0272
vn -0.0925 -0.2946 -0.9511
vn 0.0759 0.7936 -0.6037
vn 0.0925 0.2946 0.9511
vn -0.0759 -0.7936 0.6037
vn 0.1108 -0.8376 -0.5350
vn 0.3946 0.2235 -0.8913
vn 0.3833 0.9232 0.0272
vn -0.1717 0.5737 -0.8009
vn -0.2347 -0.1180 -0.9649
vn 0.3846 -0.4381 -0.8125
vn 0.8305 0.0557 -0.5543
vn 0.4866 0.6810 -0.5471
vn -0.8305 -0.0557 0.5543
vn -0.4866 -0.6810 0.5471
vn 0.1717 -0.5737 0.8009
vn 0.2347 0.1180 0.9649
vn -0.3846 0.4381 0.8125
vn -0.6358 0.7197 -0.2789
vn -0.7378 -0.3994 -0.5442
vn 0.2643 -0.9174 -0.2976
vn 0.9857 -0.1183 0.1202
vn 0.4293 0.8935 0.1318
vn -0.9857 0.1183 -0.1202
vn -0.4293 -0.8935 -0.1318
vn 0.6358 -0.7197 0.2789
vn 0.7378 0.3994 0.5442
vn -0.2643 0.9174 0.2976
vn 0.6480 -0.1519 -0.7463
vn 0.7243 -0.6471 -0.2382
vn 0.0988 -0.9820 -0.1610
vn -0.3639 -0.6938 -0.6215
vn -0.0245 -0.1807 -0.9832
vn 0.3639 0.6938 0.6215
vn 0.0245 0.1807 0.9832
vn -0.6480 0.1519 0.7463
vn -0.7243 0.6471 0.2382
vn -0.0988 0.9820 0.1610
vn 0.7493 0.4882 -0.4474
vn 0.8727 -0.3130 0.3748
vn -0.1393 -0.8550 0.4996
vn -0.8881 -0.3886 -0.2454
vn -0.3389 0.4415 -0.8308
vn 0.8881 0.3886 0.2454
vn 0.3389 -0.4415 0.8308
vn -0.7493 -0.4882 0.4475
vn -0.8727 0.3130 -0.3748
vn 0.1393 0.8550 -0.4996
vn 0.7220 -0.4096 -0.5577
vn 0.1165 -0.7837 -0.6101
vn -0.0688 -0.9966 0.0454
vn 0.4223 -0.7541 0.5029
vn 0.9110 -0.3914 0.1303
vn -0.4223 0.7541 -0.5029
vn -0.9110 0.3914 -0.1303
vn -0.7220 0.4096 0.5576
vn -0.1165 0.7837 0.6101
vn 0.0687 0.9966 -0.0453
vn 0.5869 0.2591 -0.7671
vn -0.3928 -0.3461 -0.8520
vn -0.6925 -0.6906 0.2086
vn 0.1020 -0.2983 0.9490
vn 0.8927 0.2886 0.3460
vn -0.1020 0.2983 -0.9490
vn -0.8927 -0.2886 -0.3460
vn -0.5869 -0.2591 0.7671
vn 0.3928 0.3461 0.8520
vn 0.6925 0.6906 -0.2086
vt 0.522108 0.261049
vt 0.433288 0.327286
vt 0.433288 0.215471
vt 0.540708 0.185538
vt 0.319895 0.677293
vt 0.223932 0.735035
vt 0.218603 0.641330
vt 0.097414 0.741369
vt -0.000000 0.796535
vt -0.000000 0.682195
vt 0.098547 0.642204
vt 0.319896 0.641330
vt 0.417271 0.695104
vt 0.319896 0.754960
vt 0.418535 0.797050
vt 0.433288 0.036366
vt 0.519758 0.096829
vt 0.433288 0.151036
vt 0.541575 0.185538
vt 0.722763 0.742352
vt 0.816701 0.794282
vt 0.712840 0.824340
vt 0.540708 0.366457
vt 0.607098 0.278852
vt 0.319896 0.792188
vt 0.608501 0.092193
vt 0.541576 0.000000
vt 0.816701 0.680659
vt 0.712840 0.640493
vt 0.218603 0.827233
vt 0.441150 0.453583
vt 0.575040 0.406199
vt 0.556993 0.529774
vt 0.575040 0.457645
vt 0.688435 0.406199
vt 0.700775 0.530513
vt 0.732586 0.044544
vt 0.608501 0.117087
vt 0.610278 -0.000000
vt 0.732586 0.189867
vt 0.610278 0.235137
vt 0.830555 0.468063
vt 0.710366 0.549755
vt 0.700775 0.406199
vt 0.441150 0.523687
vt 0.356145 0.641330
vt 0.325645 0.524500
vt 0.218603 0.596550
vt 0.119763 0.597136
vt 0.000000 0.642204
vt 0.000000 0.514827
vt 0.830555 0.596718
vt 0.441150 0.598488
vt 0.575040 0.602447
vt 0.218603 0.451230
vt 0.356145 0.406199
vt 0.130303 0.453279
vt 0.210834 0.542617
vt 0.017053 0.409437
vt 0.688436 0.640493
vt 0.575040 0.640660
vt 0.712840 0.668603
vt 0.638345 0.714268
vt 0.627675 0.640493
vt 0.830555 0.698634
vt 0.909078 0.748127
vt 0.830555 0.784589
vt 0.801259 0.116332
vt 0.879408 0.085983
vt 0.880518 0.163263
vt 0.801259 0.209088
vt 0.879409 0.236063
vt 0.441150 0.704975
vt 0.522518 0.664194
vt 0.518973 0.755545
vt 0.572805 0.722483
vt 0.674356 0.303497
vt 0.661648 0.384307
vt 0.608501 0.311173
vt 0.880852 0.320830
vt 0.801259 0.273074
vt 0.878268 0.236063
vt 0.441150 0.788469
vt 0.712840 0.761410
vt 0.910581 0.657983
vt 0.747642 0.353471
vt 0.747642 0.261279
vt 0.801259 0.363893
vt 0.878268 0.383012
vt 0.627675 0.790657
vt 0.575040 0.715927
vt 0.446887 0.640660
vt 0.661647 0.235137
vt 0.218603 0.871696
vt 0.249347 0.827233
vt 0.254028 0.872073
vt 0.918287 0.197620
vt 0.962586 0.172286
vt 0.968729 0.212912
vt 0.299090 0.899470
vt 0.249346 0.916341
vt 0.299090 0.844397
vt 0.177881 0.894253
vt 0.177881 0.949288
vt 0.132217 0.921250
vt 0.128850 0.966992
vt 0.098548 0.922899
vt 0.944019 0.938487
vt 0.897369 0.911677
vt 0.944697 0.896202
vt 0.128850 0.877944
vt 0.486996 0.985744
vt 0.441150 0.969894
vt 0.488328 0.942705
vt 0.918286 0.142908
vt 0.932612 0.578948
vt 0.978220 0.604331
vt 0.932612 0.633510
vt 0.897367 0.966627
vt 0.944697 0.985114
vt 0.441150 0.914877
vt 0.486996 0.896725
vt 0.968729 0.124385
vt 0.981718 0.652850
vt 0.981718 0.564567
vt 0.958758 0.808919
vt 0.958758 0.877899
vt 0.900781 0.845398
vt 0.619294 0.810321
vt 0.613729 0.879403
vt 0.575040 0.838212
vt 0.676332 0.850011
vt 0.667327 0.902433
vt 0.897367 0.896202
vt 0.441150 0.875696
vt 0.441150 0.808790
vt 0.489699 0.832598
vt 0.910581 0.657983
vt 0.971714 0.674833
vt 0.913573 0.706399
vt 0.971713 0.743312
vt 0.924465 0.012227
vt 0.978440 0.036470
vt 0.918286 0.071294
vt 0.978440 0.105787
vt 0.897367 0.784589
vt 0.548091 0.842817
vt 0.507244 0.896725
vt 0.676332 0.790657
vt 0.888301 0.296499
vt 0.880852 0.236063
vt 0.944377 0.259482
vt 0.880852 0.347801
vt 0.944378 0.328540
vt 0.507243 0.788469
vt 0.910581 0.768784
vt 0.924466 0.124385
vt 0.204537 0.822665
vt 0.143907 0.781517
vt 0.204537 0.759941
vt 0.775725 0.917087
vt 0.714943 0.942564
vt 0.712840 0.879803
vt 0.775725 0.844020
vt 0.714943 0.824340
vt 0.319897 0.895706
vt 0.381698 0.860996
vt 0.383571 0.914890
vt 0.065506 0.895041
vt 0.000000 0.913822
vt 0.004876 0.861654
vt 0.889956 0.844015
vt 0.830555 0.807296
vt 0.897367 0.784589
vt 0.205569 0.705435
vt 0.145485 0.663406
vt 0.205569 0.642204
vt 0.000000 0.796535
vt 0.065507 0.822554
vt 0.139033 0.854448
vt 0.830555 0.880626
vt 0.897367 0.903238
vt 0.139426 0.736172
vt 0.195766 0.759941
vt 0.098547 0.691936
vt 0.319896 0.822876
vt 0.196651 0.877944
vt 0.383571 0.797050
vt 0.098548 0.811366
s 1
usemtl Tree
f 1/1/1 2/2/1 3/3/1
f 4/4/2 1/1/2 3/3/2
f 5/5/3 4/6/3 3/7/3
f 6/8/4 5/9/4 3/10/4
f 2/11/5 6/8/5 3/10/5
f 7/12/6 8/13/6 9/14/6
f 8/13/7 10/15/7 9/14/7
f 10/16/8 11/17/8 9/18/8
f 11/17/9 12/19/9 9/18/9
f 12/20/10 7/21/10 9/22/10
f 1/1/11 7/23/11 2/2/11
f 4/4/12 8/24/12 1/1/12
f 5/5/13 10/25/13 4/6/13
f 6/26/14 11/17/14 5/27/14
f 2/28/15 12/20/15 6/29/15
f 7/23/16 1/1/16 8/24/16
f 8/30/17 4/6/17 10/25/17
f 10/16/18 5/27/18 11/17/18
f 11/17/19 6/26/19 12/19/19
f 12/20/20 2/28/20 7/21/20
f 13/31/21 14/32/21 15/33/21
f 16/34/22 14/35/22 13/36/22
f 17/37/23 14/38/23 16/39/23
f 18/40/24 14/38/24 17/37/24
f 15/41/25 14/38/25 18/40/25
f 19/42/26 20/43/26 21/44/26
f 21/45/27 20/46/27 22/47/27
f 22/47/28 20/46/28 23/48/28
f 23/49/29 20/50/29 24/51/29
f 24/52/30 20/43/30 19/42/30
f 13/31/31 15/33/31 19/53/31
f 16/34/32 13/36/32 21/54/32
f 17/55/33 16/56/33 22/47/33
f 18/57/34 17/58/34 23/49/34
f 15/59/35 18/57/35 24/51/35
f 19/60/36 21/54/36 13/36/36
f 21/45/37 22/47/37 16/56/37
f 22/47/38 23/48/38 17/55/38
f 23/49/39 24/51/39 18/57/39
f 24/61/40 19/53/40 15/33/40
f 25/62/41 26/63/41 27/64/41
f 28/65/42 25/66/42 27/67/42
f 29/68/43 28/69/43 27/70/43
f 30/71/44 29/68/44 27/70/44
f 26/72/45 30/71/45 27/70/45
f 31/73/46 32/74/46 33/75/46
f 32/74/47 34/76/47 33/75/47
f 34/77/48 35/78/48 33/79/48
f 35/80/49 36/81/49 33/82/49
f 36/83/50 31/73/50 33/75/50
f 25/62/51 31/84/51 26/63/51
f 28/65/52 32/85/52 25/66/52
f 29/86/53 34/77/53 28/87/53
f 30/88/54 35/80/54 29/89/54
f 26/63/55 36/90/55 30/91/55
f 31/73/56 25/92/56 32/74/56
f 32/93/57 28/87/57 34/77/57
f 34/77/58 29/86/58 35/78/58
f 35/80/59 30/88/59 36/81/59
f 36/90/60 26/63/60 31/84/60
f 37/94/61 38/95/61 39/96/61
f 40/97/62 37/98/62 39/99/62
f 41/100/63 40/101/63 39/96/63
f 42/102/64 41/100/64 39/96/64
f 38/95/65 42/102/65 39/96/65
f 43/103/66 44/104/66 45/105/66
f 44/104/67 46/106/67 45/105/67
f 46/106/68 47/107/68 45/105/68
f 47/108/69 48/109/69 45/110/69
f 48/111/70 43/103/70 45/105/70
f 37/112/71 43/113/71 38/114/71
f 40/97/72 44/115/72 37/98/72
f 41/116/73 46/117/73 40/118/73
f 42/119/74 47/108/74 41/120/74
f 38/114/75 48/121/75 42/122/75
f 43/123/76 37/98/76 44/115/76
f 44/124/77 40/118/77 46/117/77
f 46/117/78 41/116/78 47/125/78
f 47/108/79 42/119/79 48/109/79
f 48/121/80 38/114/80 43/113/80
f 49/126/81 50/127/81 51/128/81
f 52/129/82 50/130/82 49/131/82
f 53/132/83 50/130/83 52/129/83
f 54/133/84 50/130/84 53/132/84
f 51/128/85 50/127/85 54/134/85
f 55/135/86 56/136/86 57/137/86
f 57/138/87 56/139/87 58/140/87
f 58/140/88 56/139/88 59/141/88
f 59/142/89 56/143/89 60/144/89
f 60/144/90 56/143/90 55/145/90
f 49/126/91 51/128/91 55/146/91
f 52/147/92 49/148/92 57/137/92
f 53/132/93 52/129/93 58/149/93
f 54/150/94 53/151/94 59/152/94
f 51/153/95 54/150/95 60/154/95
f 55/135/96 57/137/96 49/148/96
f 57/137/97 58/155/97 52/147/97
f 58/140/98 59/141/98 53/156/98
f 59/152/99 60/154/99 54/150/99
f 60/144/100 55/145/100 51/157/100
f 61/158/101 62/159/101 63/160/101
f 64/161/102 61/162/102 63/163/102
f 65/164/103 64/161/103 63/163/103
f 66/165/104 65/164/104 63/163/104
f 62/166/105 66/167/105 63/168/105
f 67/169/106 68/170/106 69/171/106
f 68/172/107 70/173/107 69/174/107
f 70/175/108 71/176/108 69/177/108
f 71/178/109 72/179/109 69/171/109
f 72/179/110 67/169/110 69/171/110
f 61/158/111 67/180/111 62/159/111
f 64/181/112 68/172/112 61/182/112
f 65/183/113 70/175/113 64/184/113
f 66/185/114 71/176/114 65/183/114
f 62/166/115 72/186/115 66/167/115
f 67/180/116 61/158/116 68/187/116
f 68/172/117 64/181/117 70/173/117
f 70/175/118 65/183/118 71/176/118
f 71/188/119 66/167/119 72/186/119
f 72/189/120 62/159/120 67/180/120
