# Blender 4.4.3
# www.blender.org
mtllib wood.mtl
o Wood
v -0.524753 -0.707811 -1.375330
v -1.530720 -0.666692 -0.246043
v -0.906262 -0.661508 1.114650
v 0.545834 -0.691875 1.430580
v 1.428380 -0.731081 0.229593
v 1.003760 -0.742633 -1.234560
v 0.786882 2.829260 -1.292080
v 0.634320 3.398030 -0.788073
v 0.981512 3.479440 -0.078913
v 1.523780 2.912260 0.091951
v 1.676340 2.343490 -0.412051
v 1.329150 2.262090 -1.121210
v 2.590350 4.581570 -2.364060
v 2.284990 4.935220 -1.789590
v 2.618920 4.925010 -1.150150
v 3.307150 4.689200 -1.056970
v 3.579860 4.277480 -1.608760
v 3.190570 4.189310 -2.209740
v 3.548730 7.474690 -3.085660
v 3.179140 7.782060 -2.584871
v 3.457590 7.915910 -1.985291
v 4.129530 7.825920 -1.853911
v 4.467040 7.431500 -2.314750
v 4.167410 7.240170 -2.887950
v 4.610620 9.715500 -4.610961
v 4.329670 10.026100 -4.189471
v 4.618490 10.377800 -3.758961
v 5.193200 10.151200 -3.649341
v 5.446400 9.759160 -4.017121
v 5.230610 9.621720 -4.588951
v 5.329910 12.149400 -6.046781
v 4.943740 12.432300 -5.755641
v 5.132160 12.758100 -5.329721
v 5.682000 12.785100 -5.243671
v 6.062160 12.605600 -5.614061
v 5.874570 12.265500 -6.029011
v 4.504820 14.467399 -8.187001
v 4.190170 14.551299 -7.822421
v 4.296360 14.864499 -7.420801
v 4.812380 14.913899 -7.377231
v 5.123650 14.842199 -7.747291
v 4.972290 14.692899 -8.222091
v 3.999850 17.357000 -8.289581
v 3.732230 17.426500 -7.970262
v 3.860470 17.549601 -7.588881
v 4.278850 17.547899 -7.502331
v 4.541640 17.412100 -7.803892
v 4.417470 17.344900 -8.200251
v -1.329990 3.068750 -0.363729
v -1.557590 2.543650 0.157999
v -1.274460 2.487970 0.896637
v -0.713633 3.032170 1.078560
v -0.486032 3.557270 0.556835
v -0.769166 3.612950 -0.181802
v -3.138910 4.920410 0.608952
v -3.543690 4.654590 1.163260
v -3.187250 4.579370 1.797950
v -2.559700 4.895340 1.933270
v -2.198220 5.250730 1.399600
v -2.478520 5.168480 0.728617
v -3.691650 8.117520 0.828337
v -4.081530 7.963370 1.407449
v -3.818570 7.919170 2.027159
v -3.129580 8.041240 2.173199
v -2.739530 7.954450 1.580349
v -3.002480 7.980610 0.959612
v -3.087320 11.035200 1.064619
v -3.436060 10.948400 1.535759
v -3.286270 11.120200 2.132839
v -2.662830 11.013000 2.195569
v -2.315400 10.936300 1.721709
v -2.462250 11.130300 1.130719
v -3.489960 13.907800 1.064089
v -3.903330 13.803100 1.447929
v -3.713470 13.767100 1.993289
v -3.181150 13.896200 2.108929
v -2.832850 14.172500 1.746219
v -2.995990 14.138000 1.192179
v -4.001330 8.772710 1.053099
v -3.139230 8.379410 1.169739
v -4.347070 8.116940 0.904419
v -3.490630 7.643380 1.013119
v -4.509920 8.039980 1.638749
v -3.674430 7.559710 1.818709
v -4.164180 8.695760 1.787439
v -3.323030 8.295740 1.975329
v -5.390950 9.677380 0.666910
v -5.902130 9.282610 0.442940
v -6.108930 9.229530 1.092339
v -5.728770 9.774410 1.253229
v -6.740640 11.394800 0.568837
v -7.101490 10.946100 0.356537
v -7.233380 10.779900 0.932313
v -6.873310 11.229100 1.144609
v -7.698760 11.911300 0.443551
v -8.103240 11.531600 0.251495
v -8.099200 11.299600 0.790801
v -7.822750 11.773200 1.000529
v -8.462850 12.801900 1.272499
v -8.957310 12.591700 1.140859
v -8.885890 12.211700 1.536379
v -8.430990 12.471000 1.714649
v -2.282270 5.845530 1.045590
v -2.876720 5.105140 0.686232
v -2.543280 5.761850 1.811720
v -3.177360 4.992410 1.528080
v -1.915180 5.268740 1.967910
v -2.499430 4.422570 1.693880
v -1.654170 5.352410 1.201790
v -2.198790 4.535300 0.852030
v -0.650002 6.838950 1.476789
v -0.894234 6.868030 2.013720
v -0.728117 6.313870 2.132489
v -0.483885 6.284790 1.595559
v 0.312135 7.163610 2.203969
v 0.029874 7.210880 2.691339
v 0.133727 6.659950 2.763000
v 0.567266 6.700040 2.402610
v 0.973660 7.646140 2.844500
v 0.635033 7.686971 3.249959
v 0.953424 7.389781 3.551700
v 1.233680 7.273690 3.117280
v 1.420080 8.488070 2.842569
v 1.216640 8.654760 3.269609
v 1.634470 8.520950 3.512619
v 1.854460 8.401750 3.077949
v 1.639620 9.845560 2.500489
v 1.460760 9.790220 2.973659
v 1.911640 9.934580 3.160229
v 2.077110 9.721420 2.728809
v 1.546870 11.202700 2.464669
v 1.405540 11.017200 2.879369
v 1.810290 11.174100 3.074059
v 1.943630 11.013400 2.646589
v -2.157290 7.185500 2.142869
v -2.350350 6.720390 2.454190
v -1.803450 6.613220 2.654020
v -1.610390 7.078330 2.342700
v -2.264120 7.842260 3.280720
v -2.449260 7.371231 3.518049
v -1.918090 7.237640 3.629750
v -1.758310 7.758171 3.503320
v -2.583990 8.108590 4.301620
v -2.742870 7.629281 4.452579
v -2.333560 7.592620 4.782559
v -2.136770 8.032920 4.570010
v -3.146790 8.669650 4.830750
v -3.446360 8.459360 5.171679
v -3.077540 8.479610 5.508969
v -2.776630 8.685940 5.166790
v -3.171570 9.939490 4.857309
v -3.477140 9.779420 5.207869
v -3.151460 9.895890 5.557509
v -2.817270 9.929850 5.198279
v -3.732800 11.181200 5.021109
v -3.904730 10.845600 5.352049
v -3.698580 11.144100 5.698599
v -3.366310 11.045600 5.335799
v 5.748000 11.647500 -6.086371
v 5.568240 11.786500 -4.978641
v 5.793190 11.014200 -6.000041
v 5.624710 11.067300 -4.907531
v 5.170740 10.953400 -6.139601
v 4.915580 10.998300 -5.041611
v 5.125550 11.586700 -6.225941
v 4.859110 11.717600 -5.112721
v 6.015640 11.463399 -7.149821
v 6.053980 10.878899 -7.038031
v 5.461970 10.845099 -7.101011
v 5.460790 11.385199 -7.353791
v 6.279010 10.930799 -8.182391
v 6.174750 10.464999 -7.867341
v 5.738330 10.355299 -8.220301
v 5.711310 10.925699 -8.251481
v 6.893220 10.654899 -9.064081
v 6.860410 10.133299 -9.010900
v 6.503520 10.111799 -9.395831
v 6.475040 10.636199 -9.381541
v 7.621430 10.737399 -9.753951
v 7.902820 10.300699 -9.896531
v 7.504260 10.339799 -10.256901
v 7.634720 10.862099 -10.277901
v 8.966240 11.028099 -9.919791
v 9.259740 10.645999 -9.983391
v 9.043980 10.678299 -10.417601
v 9.053870 11.162599 -10.378401
v 1.856140 12.673000 2.967199
v -4.107290 12.485100 5.390699
v -0.363030 2.399010 -1.143420
v -1.261290 2.200930 -0.194404
v -0.714177 2.189560 0.836823
v -1.182490 5.880400 1.388000
v 0.483260 2.349100 1.087270
v 1.318580 2.037190 0.103932
v 0.854202 2.071390 -0.969078
v -0.048278 3.494540 -0.524021
v 0.324427 3.472560 0.458374
v -1.917640 6.392760 1.224180
v -2.254080 6.351120 2.061270
v -1.522440 5.911160 2.125410
v -1.446170 6.784370 1.889120
v -4.147220 12.492800 5.119239
v -4.331940 12.273400 5.423849
v -4.065930 12.472600 5.662039
v 1.581850 12.503700 3.058039
v 1.940160 12.411000 3.185489
v -3.852570 12.596600 5.354949
v 1.739950 12.659000 2.712969
v 2.099980 12.581000 2.842339
vn -0.7072 0.3531 -0.6126
vn -0.5764 0.7945 0.1910
vn 0.1575 0.4199 0.8938
vn 0.7230 -0.3393 0.6018
vn 0.6240 -0.7500 -0.2194
vn 0.6240 -0.7500 -0.2195
vn -0.1249 -0.3938 -0.9107
vn -0.8344 0.1437 -0.5320
vn -0.8797 0.3396 0.3328
vn -0.0428 0.2565 0.9656
vn -0.0428 0.2566 0.9656
vn 0.8608 -0.0989 0.4992
vn 0.8124 -0.3353 -0.4770
vn 0.0893 -0.2433 -0.9658
vn -0.8070 -0.0084 -0.5904
vn -0.8071 -0.0084 -0.5904
vn -0.7961 0.5528 0.2463
vn -0.0738 0.6056 0.7923
vn 0.8270 0.0538 0.5596
vn 0.8087 -0.5353 -0.2440
vn 0.8086 -0.5353 -0.2440
vn 0.0336 -0.5908 -0.8061
vn 0.0337 -0.5908 -0.8061
vn -0.8612 -0.1040 -0.4974
vn -0.8612 -0.1040 -0.4975
vn -0.8787 0.3969 0.2652
vn -0.8787 0.3969 0.2653
vn 0.0383 0.5122 0.8580
vn 0.0383 0.5123 0.8580
vn 0.8632 0.0918 0.4965
vn 0.8632 0.0918 0.4964
vn 0.8629 0.0909 0.4972
vn 0.9037 -0.3409 -0.2591
vn 0.9037 -0.3408 -0.2591
vn -0.0399 -0.4705 -0.8815
vn -0.0399 -0.4704 -0.8815
vn -0.7140 -0.5949 -0.3691
vn -0.9205 0.0222 0.3902
vn -0.9204 0.0222 0.3902
vn -0.1467 0.6697 0.7280
vn -0.1468 0.6697 0.7280
vn 0.6693 0.6403 0.3768
vn 0.6694 0.6403 0.3768
vn 0.9169 -0.0193 -0.3986
vn 0.9169 -0.0194 -0.3986
vn 0.9169 -0.0194 -0.3987
vn 0.1588 -0.6287 -0.7612
vn 0.1589 -0.6287 -0.7612
vn -0.7653 -0.1559 -0.6245
vn -0.9288 -0.1301 0.3471
vn -0.0886 0.0479 0.9949
vn 0.7694 0.1849 0.6114
vn 0.7695 0.1849 0.6114
vn 0.9152 0.1944 -0.3529
vn 0.9153 0.1944 -0.3529
vn -0.0533 -0.0447 -0.9976
vn -0.6868 -0.3404 -0.6422
vn -0.6642 -0.7203 0.2003
vn 0.0463 -0.3593 0.9321
vn 0.6660 0.3603 0.6532
vn 0.6098 0.7729 -0.1755
vn 0.6098 0.7728 -0.1755
vn -0.0870 0.3954 -0.9144
vn -0.0870 0.3953 -0.9144
vn -0.8149 -0.0902 -0.5726
vn -0.8148 -0.0902 -0.5726
vn -0.8648 -0.1952 0.4625
vn -0.8649 -0.1952 0.4625
vn -0.1888 -0.1027 0.9766
vn 0.8376 0.1109 0.5349
vn 0.8376 0.1109 0.5348
vn 0.8952 0.1995 -0.3984
vn 0.1438 0.0925 -0.9853
vn -0.8364 0.2028 -0.5092
vn -0.9082 0.1380 0.3952
vn -0.2077 0.0023 0.9782
vn 0.8190 -0.1328 0.5583
vn 0.8189 -0.1328 0.5583
vn 0.9103 -0.1349 -0.3913
vn 0.1910 0.0206 -0.9814
vn -0.6647 -0.0933 -0.7413
vn -0.9487 -0.1467 0.2802
vn -0.0980 0.0123 0.9951
vn 0.6772 0.1028 0.7286
vn 0.9693 0.1564 -0.1895
vn 0.9693 0.1564 -0.1896
vn 0.0994 0.0379 -0.9943
vn 0.0994 0.0380 -0.9943
vn 0.1886 0.1175 -0.9750
vn 0.1886 0.1174 -0.9750
vn -0.4557 -0.8687 -0.1942
vn -0.2553 -0.0830 0.9633
vn 0.3876 0.9036 0.1822
vn 0.2433 0.2481 -0.9377
vn 0.2433 0.2480 -0.9377
vn -0.4474 -0.8267 -0.3412
vn -0.2710 -0.2251 0.9359
vn 0.4119 0.8461 0.3383
vn -0.1446 0.5650 -0.8123
vn -0.1446 0.5649 -0.8123
vn -0.8398 -0.5010 -0.2092
vn 0.2174 -0.4986 0.8392
vn 0.2173 -0.4986 0.8392
vn 0.8438 0.4461 0.2985
vn 0.8438 0.4461 0.2984
vn -0.7284 0.6634 -0.1713
vn -0.3094 -0.0929 0.9464
vn 0.7759 -0.5994 0.1967
vn 0.3567 0.1565 -0.9210
vn 0.3567 0.1564 -0.9210
vn -0.2130 0.9656 -0.1492
vn -0.2131 0.9656 -0.1492
vn -0.5904 -0.0039 0.8071
vn 0.2499 -0.9540 0.1654
vn 0.6061 0.0113 -0.7953
vn 0.6061 0.0112 -0.7953
vn -0.3604 0.8851 -0.2946
vn -0.6779 -0.0323 0.7344
vn 0.3891 -0.8417 0.3745
vn 0.6970 0.0782 -0.7127
vn -0.7269 0.4474 -0.5210
vn -0.4143 0.2794 0.8662
vn 0.7501 -0.4343 0.4988
vn 0.7501 -0.4344 0.4987
vn 0.4193 -0.2611 -0.8695
vn -0.8970 0.0340 -0.4406
vn -0.8971 0.0340 -0.4406
vn -0.4079 0.2953 0.8640
vn -0.4079 0.2953 0.8639
vn 0.9163 -0.0820 0.3920
vn 0.9163 -0.0819 0.3920
vn 0.3793 -0.2833 -0.8808
vn -0.9301 -0.0731 -0.3601
vn -0.9300 -0.0731 -0.3601
vn -0.3909 0.0320 0.9199
vn 0.9452 0.1170 0.3047
vn 0.9452 0.1171 0.3047
vn 0.4645 0.0084 -0.8855
vn -0.9439 0.2398 -0.2270
vn -0.3319 -0.8181 0.4696
vn 0.9420 -0.2231 0.2507
vn 0.3264 0.8332 -0.4464
vn -0.9212 0.1915 -0.3386
vn -0.2769 -0.9419 0.1902
vn 0.9050 -0.1848 0.3831
vn 0.9051 -0.1848 0.3831
vn 0.2319 0.9587 -0.1647
vn 0.2318 0.9587 -0.1647
vn -0.7077 0.0121 -0.7064
vn -0.4474 -0.7606 0.4705
vn 0.7113 0.0212 0.7026
vn 0.4022 0.8004 -0.4446
vn -0.7539 0.0004 -0.6570
vn -0.7201 -0.0613 0.6912
vn 0.7314 0.0148 0.6818
vn 0.6712 0.0286 -0.7407
vn -0.7336 -0.2481 -0.6327
vn -0.6235 -0.3522 0.6980
vn 0.7013 0.2312 0.6743
vn 0.7014 0.2312 0.6743
vn 0.6469 0.3796 -0.6614
vn 0.9847 0.0920 0.1483
vn 0.0852 -0.9945 0.0605
vn -0.9704 -0.0982 -0.2208
vn -0.0709 0.9886 -0.1332
vn 0.9689 0.1000 0.2265
vn 0.0640 -0.9874 0.1447
vn -0.9582 -0.1047 -0.2661
vn -0.0529 0.9802 -0.1909
vn 0.9753 0.1015 0.1964
vn 0.0093 -0.9152 0.4029
vn 0.0094 -0.9152 0.4029
vn -0.9753 -0.0953 -0.1991
vn 0.0397 0.8921 -0.4501
vn 0.0397 0.8921 -0.4500
vn 0.8666 0.1316 0.4814
vn 0.0533 -0.9704 0.2357
vn -0.8426 -0.0691 -0.5342
vn -0.8426 -0.0691 -0.5341
vn 0.0967 0.9779 -0.1852
vn 0.0967 0.9779 -0.1853
vn 0.6435 0.0375 0.7645
vn 0.0348 -0.9887 -0.1459
vn -0.6101 -0.0115 -0.7922
vn -0.6101 -0.0116 -0.7922
vn -0.1178 0.9883 0.0967
vn -0.1178 0.9883 0.0968
vn 0.1218 -0.2362 0.9640
vn 0.1948 -0.9662 -0.1687
vn -0.1005 -0.0148 -0.9948
vn -0.1867 0.9568 0.2230
vn -0.1868 0.9568 0.2230
vn -0.7422 0.0882 -0.6643
vn -0.7422 0.0882 -0.6644
vn -0.9062 0.0777 0.4156
vn -0.2093 0.1054 0.9721
vn -0.2093 0.1054 0.9722
vn 0.8043 0.0830 0.5884
vn 0.8043 0.0830 0.5883
vn 0.9574 0.0771 -0.2783
vn 0.0931 0.0693 -0.9932
vn -0.3017 0.5335 -0.7902
vn -0.3017 0.5334 -0.7902
vn 0.0060 0.9998 0.0201
vn 0.4544 0.4832 0.7484
vn 0.7264 -0.1612 0.6681
vn 0.4358 -0.8736 -0.2164
vn 0.0269 -0.3899 -0.9205
vn -0.6928 -0.1905 -0.6955
vn -0.4395 -0.8700 0.2236
vn -0.1213 -0.2001 0.9722
vn -0.1213 -0.2001 0.9723
vn 0.2787 0.4988 0.8207
vn 0.1465 0.9886 -0.0335
vn 0.1465 0.9886 -0.0334
vn -0.2768 0.5320 -0.8002
vn -0.8017 0.5190 -0.2964
vn -0.1679 -0.1367 0.9763
vn -0.1678 -0.1368 0.9763
vn -0.1679 -0.1368 0.9763
vn 0.6450 -0.6911 0.3261
vn 0.6449 -0.6912 0.3261
vn 0.6449 -0.6911 0.3261
vn 0.2763 0.0906 -0.9568
vn -0.2934 0.9380 -0.1843
vn -0.1455 0.2702 0.9517
vn 0.4375 -0.8672 0.2379
vn 0.2028 -0.0220 -0.9790
vn 0.2029 -0.0220 -0.9790
vn -0.9535 0.1689 -0.2494
vn -0.9535 0.1690 -0.2494
vn -0.4137 -0.0601 0.9084
vn 0.9302 -0.1354 0.3411
vn 0.4423 0.0676 -0.8943
vn -0.9209 0.1423 -0.3630
vn -0.4428 -0.6457 0.6221
vn 0.9022 0.0375 0.4298
vn 0.2165 0.7664 -0.6048
vn 0.2158 0.7668 -0.6046
vn -0.7714 -0.2004 -0.6040
vn -0.5613 -0.2082 0.8010
vn 0.7481 0.2269 0.6236
vn 0.5719 0.1892 -0.7982
vn 0.5719 0.1891 -0.7982
vn 0.0761 0.8957 0.4380
vn 0.0295 0.8902 0.4547
vn 0.9094 -0.0522 -0.4127
vn -0.6650 0.7360 0.1269
vn -0.3964 0.9133 0.0934
vn 0.9485 0.2882 -0.1313
vn -0.3485 -0.1574 0.9240
vn -0.3484 -0.1574 0.9240
vn -0.7687 -0.5694 -0.2914
vn -0.7687 -0.5694 -0.2913
vn 0.7302 0.5932 0.3389
vn 0.2899 0.1600 -0.9436
vn -0.3440 -0.0314 0.9384
vn -0.5381 -0.8175 -0.2050
vn 0.4954 0.8457 0.1985
vn 0.3015 0.0568 -0.9518
vt 0.242753 0.081152
vt 0.256858 0.086208
vt 0.240755 0.129508
vt 0.226170 0.129547
vt 0.801419 0.030263
vt 0.796764 0.074701
vt 0.782496 0.074928
vt 0.785952 0.030461
vt 0.186149 0.077102
vt 0.204348 0.123877
vt 0.195383 0.126716
vt 0.176667 0.086747
vt 0.199922 0.072952
vt 0.218603 0.123216
vt 0.854854 0.011987
vt 0.870297 0.013870
vt 0.869243 0.059345
vt 0.855127 0.059345
vt 0.234334 0.072753
vt 0.218603 0.124621
vt 0.247650 0.189974
vt 0.233907 0.190562
vt 0.817783 0.000000
vt 0.829437 0.004239
vt 0.829437 0.056309
vt 0.816257 0.054815
vt 0.804322 0.059863
vt 0.805793 0.002061
vt 0.207486 0.186165
vt 0.193833 0.187242
vt 0.854597 0.406199
vt 0.868180 0.406839
vt 0.848662 0.460576
vt 0.836310 0.462386
vt 0.877325 0.417510
vt 0.859303 0.468347
vt 0.234742 0.247774
vt 0.222982 0.247210
vt 0.954085 0.236063
vt 0.967590 0.287157
vt 0.958471 0.291431
vt 0.944378 0.244467
vt 0.967178 0.237715
vt 0.978465 0.287934
vt 0.218317 0.245317
vt 0.206861 0.247529
vt 0.843347 0.501623
vt 0.832497 0.502832
vt 0.205569 0.644946
vt 0.218060 0.642204
vt 0.216238 0.682639
vt 0.205569 0.688579
vt 0.229303 0.305293
vt 0.218603 0.304716
vt 0.076934 0.796535
vt 0.088960 0.799142
vt 0.094851 0.842292
vt 0.084390 0.839322
vt 0.981283 0.332124
vt 0.970519 0.329922
vt 0.218603 0.311092
vt 0.207708 0.309307
vt 0.839937 0.549697
vt 0.830555 0.555014
vt 0.852460 0.506612
vt 0.848788 0.550280
vt 0.227731 0.354713
vt 0.218603 0.357808
vt 0.074496 0.893070
vt 0.065506 0.889585
vt 0.954261 0.374779
vt 0.944378 0.371928
vt 0.213894 0.367213
vt 0.204834 0.363818
vt 0.869800 0.601978
vt 0.861053 0.603798
vt 0.732587 0.171901
vt 0.742835 0.175574
vt 0.741860 0.223483
vt 0.732587 0.221412
vt 0.257638 0.403460
vt 0.249761 0.406199
vt 0.088360 0.944991
vt 0.080874 0.945011
vt 0.082116 0.889647
vt 0.094851 0.941312
vt 0.183143 0.409437
vt 0.174909 0.407949
vt 0.866263 0.655560
vt 0.859244 0.655991
vt 0.877325 0.600043
vt 0.873540 0.657983
vt 0.284110 0.052398
vt 0.338413 0.070698
vt 0.329024 0.081855
vt 0.279432 0.066877
vt 0.789504 0.314875
vt 0.775820 0.316277
vt 0.787886 0.267666
vt 0.801259 0.265511
vt 0.763990 0.307583
vt 0.776165 0.263702
vt 0.146535 0.062613
vt 0.150839 0.077343
vt 0.103926 0.092442
vt 0.096292 0.080058
vt 0.904955 0.227043
vt 0.892659 0.190266
vt 0.905377 0.188876
vt 0.918285 0.228288
vt 0.893028 0.236063
vt 0.880518 0.193120
vt 0.378819 0.123427
vt 0.368162 0.132765
vt 0.787069 0.200160
vt 0.798930 0.198939
vt 0.774716 0.200183
vt 0.056277 0.129107
vt 0.069273 0.134694
vt 0.892723 0.133427
vt 0.904351 0.134149
vt 0.880724 0.128680
vt 0.402631 0.177614
vt 0.393277 0.184704
vt 0.770948 0.139764
vt 0.781305 0.143139
vt 0.761141 0.144086
vt 0.043523 0.184938
vt 0.032655 0.180488
vt 0.909134 0.073460
vt 0.918285 0.077119
vt 0.898485 0.073384
vt 0.424695 0.232516
vt 0.433288 0.225477
vt 0.773400 0.086848
vt 0.783230 0.085983
vt 0.763744 0.086187
vt 0.006030 0.237806
vt 0.000000 0.228493
vt 0.907338 0.012941
vt 0.916720 0.012227
vt 0.897698 0.015987
vt 0.562951 0.788469
vt 0.567320 0.806045
vt 0.553629 0.810921
vt 0.548091 0.794427
vt 0.891766 0.586927
vt 0.908191 0.585906
vt 0.908668 0.602594
vt 0.893721 0.603613
vt 0.985219 0.406199
vt 1.000000 0.411922
vt 0.994657 0.428734
vt 0.981058 0.424072
vt 0.915322 0.350135
vt 0.913474 0.365987
vt 0.898753 0.363774
vt 0.899142 0.347801
vt 0.566799 0.883268
vt 0.571270 0.904159
vt 0.560009 0.903976
vt 0.554914 0.884489
vt 0.501000 0.366457
vt 0.512899 0.367404
vt 0.511886 0.384455
vt 0.501000 0.386017
vt 0.993116 0.501421
vt 0.989045 0.521303
vt 0.977809 0.518927
vt 0.981331 0.500382
vt 0.534951 0.366664
vt 0.534951 0.384179
vt 0.523323 0.383842
vt 0.522809 0.366457
vt 0.557519 0.924246
vt 0.548091 0.920879
vt 0.455361 0.398491
vt 0.446075 0.394998
vt 0.445913 0.367224
vt 0.455361 0.366457
vt 1.000000 0.533792
vt 0.990103 0.536408
vt 0.455361 0.395499
vt 0.455361 0.367030
vt 0.465460 0.366457
vt 0.464649 0.389592
vt 0.465460 0.366457
vt 0.480786 0.368500
vt 0.480786 0.384495
vt 0.465763 0.384210
vt 0.881644 0.396693
vt 0.880852 0.376485
vt 0.896333 0.374527
vt 0.898753 0.393954
vt 0.478982 0.384496
vt 0.478650 0.401832
vt 0.465460 0.404560
vt 0.465460 0.388977
vt 0.894488 0.585906
vt 0.877325 0.582994
vt 0.880731 0.563493
vt 0.896275 0.565601
vt 0.891766 0.628215
vt 0.880587 0.627256
vt 0.879062 0.604305
vt 0.889654 0.604157
vt 0.812353 0.944641
vt 0.803512 0.952181
vt 0.788279 0.936177
vt 0.795734 0.927950
vt 0.829437 0.043907
vt 0.834079 0.018134
vt 0.844275 0.022771
vt 0.841034 0.043635
vt 0.905939 0.538460
vt 0.896517 0.531655
vt 0.912854 0.513094
vt 0.923237 0.517086
vt 0.877325 0.587823
vt 0.887065 0.585906
vt 0.775726 0.912533
vt 0.786104 0.911763
vt 0.840111 0.000000
vt 0.850046 0.001241
vt 0.922499 0.494900
vt 0.932612 0.496736
vt 0.209617 0.897665
vt 0.199989 0.895749
vt 0.202630 0.878626
vt 0.213068 0.877944
vt 0.777270 0.889735
vt 0.786908 0.891821
vt 0.182628 0.899440
vt 0.177881 0.878266
vt 0.188341 0.877944
vt 0.192391 0.899120
vt 0.928627 0.474133
vt 0.919531 0.477920
vt 0.205347 0.921011
vt 0.195885 0.923531
vt 0.790379 0.866995
vt 0.797263 0.873543
vt 0.186492 0.927998
vt 0.195885 0.925917
vt 0.904755 0.457104
vt 0.914245 0.453972
vt 0.207940 0.945235
vt 0.200209 0.950110
vt 0.804524 0.847118
vt 0.810715 0.853690
vt 0.191120 0.951201
vt 0.182350 0.952265
vt 0.888327 0.435957
vt 0.897549 0.434583
vt 0.969311 0.533608
vt 0.958009 0.536753
vt 0.950669 0.515578
vt 0.960990 0.511581
vt 0.218482 0.732406
vt 0.207176 0.730268
vt 0.205569 0.711886
vt 0.216240 0.712407
vt 0.387863 0.930341
vt 0.397677 0.909201
vt 0.406689 0.914860
vt 0.399122 0.933370
vt 0.711457 0.616631
vt 0.700775 0.620318
vt 0.702690 0.600692
vt 0.712754 0.596718
vt 0.938695 0.500563
vt 0.947734 0.495433
vt 0.209352 0.688579
vt 0.218482 0.693618
vt 0.412537 0.892992
vt 0.422124 0.896375
vt 0.491411 0.387060
vt 0.480786 0.388812
vt 0.481587 0.369338
vt 0.491411 0.366457
vt 0.932612 0.475629
vt 0.942271 0.477570
vt 0.735967 0.171901
vt 0.735420 0.151198
vt 0.745303 0.150473
vt 0.746219 0.169909
vt 0.418226 0.872138
vt 0.427725 0.869875
vt 0.826930 0.736243
vt 0.817046 0.733010
vt 0.816701 0.719669
vt 0.826524 0.720783
vt 0.947334 0.453984
vt 0.956586 0.456860
vt 0.732586 0.123359
vt 0.742217 0.124678
vt 0.412567 0.846661
vt 0.404574 0.852062
vt 0.820532 0.694944
vt 0.830095 0.696494
vt 0.963954 0.431599
vt 0.954099 0.432635
vt 0.735920 0.096896
vt 0.744170 0.102206
vt 0.397670 0.828432
vt 0.404166 0.820949
vt 0.817796 0.668517
vt 0.826836 0.672566
vt 0.302627 0.827233
vt 0.316846 0.829023
vt 0.312895 0.848239
vt 0.300267 0.847087
vt 0.971718 0.784589
vt 0.980280 0.805066
vt 0.968652 0.810097
vt 0.958758 0.790721
vt 0.436432 0.641330
vt 0.437163 0.662601
vt 0.424593 0.663598
vt 0.422233 0.642953
vt 0.698350 0.790656
vt 0.711521 0.796356
vt 0.702017 0.815313
vt 0.690213 0.810659
vt 0.310893 0.867949
vt 0.299090 0.867426
vt 0.986675 0.823660
vt 0.976417 0.829524
vt 0.436647 0.685088
vt 0.425405 0.682639
vt 0.694403 0.834269
vt 0.682973 0.831276
vt 0.315060 0.883612
vt 0.304748 0.888316
vt 0.995075 0.843974
vt 0.983986 0.843522
vt 0.430353 0.703690
vt 0.419134 0.705183
vt 0.686733 0.850968
vt 0.676661 0.846039
vt 0.316846 0.910593
vt 0.306616 0.910190
vt 0.996288 0.871234
vt 0.986098 0.869205
vt 0.428732 0.731273
vt 0.418535 0.733378
vt 0.676332 0.870794
vt 0.686729 0.870229
vt 0.310700 0.936204
vt 0.302647 0.929300
vt 0.979559 0.895698
vt 0.990146 0.896955
vt 0.437163 0.758007
vt 0.426688 0.757757
vt 0.691064 0.889393
vt 0.685573 0.898538
vt 0.522809 0.403925
vt 0.522809 0.384179
vt 0.531577 0.386156
vt 0.532559 0.404492
vt 0.967252 0.917835
vt 0.958758 0.913299
vt 0.501000 0.391060
vt 0.491411 0.387755
vt 0.491411 0.366457
vt 0.500774 0.368551
vt 0.711521 0.907718
vt 0.707984 0.916653
vt 0.220995 0.013550
vt 0.247497 -0.000000
vt 0.272871 0.050804
vt 0.252288 0.066507
vt 0.801259 0.377807
vt 0.774299 0.378673
vt 0.768954 0.324205
vt 0.790445 0.322979
vt 0.748776 0.384307
vt 0.747641 0.325272
vt 0.192370 -0.000000
vt 0.218440 0.013905
vt 0.192087 0.061584
vt 0.166747 0.054587
vt 0.758430 0.069713
vt 0.754418 0.013792
vt 0.774545 0.011134
vt 0.782496 0.064881
vt 0.732586 0.068996
vt 0.732586 0.007559
vt 0.268368 0.082222
vt 0.804322 0.014208
vt 0.783752 0.016964
vt 0.162231 0.079326
vt 0.850046 -0.000000
vt 0.872859 0.004093
vt 0.748226 0.000000
vt 0.759778 0.010709
vt 0.512899 0.366457
vt 0.522809 0.370899
vt 0.520840 0.386489
vt 0.512899 0.389580
vt 0.782496 0.002211
vt 0.798046 0.000000
vt 0.281580 0.077793
vt 0.959743 0.547045
vt 0.974324 0.556642
vt 0.967011 0.564567
vt 0.953551 0.556834
vt 0.881396 0.361976
vt 0.896837 0.360735
vt 0.832417 0.058221
vt 0.848398 0.057929
vt 0.850046 0.066386
vt 0.834039 0.068319
vt 0.898752 0.551944
vt 0.881433 0.550372
vt 0.882480 0.653183
vt 0.877325 0.638112
vt 0.810997 0.963560
vt 0.820628 0.950200
vt 0.213068 0.974177
vt 0.206184 0.978307
vt 0.813384 0.824340
vt 0.820628 0.825828
vt 0.184512 0.980076
vt 0.177881 0.975258
vt 0.877325 0.408669
vt 0.884353 0.406199
vt 0.888343 0.347801
vt 0.898753 0.351836
vt 0.397621 0.951119
vt 0.383571 0.940034
vt 0.704155 0.639452
vt 0.712754 0.624142
vt 0.966066 0.406199
vt 0.974324 0.406858
vt 0.746219 0.072772
vt 0.738728 0.069713
vt 0.383571 0.799511
vt 0.390970 0.797050
vt 0.824407 0.640494
vt 0.816701 0.641359
vt 0.210834 0.428327
vt 0.218148 0.428327
vt 0.215339 0.432793
vt 0.211162 0.436361
vt 0.217769 0.409437
vt 0.218221 0.417515
vt 0.210834 0.417515
vt 0.213496 0.447173
vt 0.213496 0.456968
vt 0.210834 0.452803
vt 0.210834 0.441262
vt 0.216100 0.436361
vt 0.216096 0.441775
vt 0.216100 0.447173
vt 0.210834 0.417516
vt 0.216271 0.423094
vt 0.210834 0.428327
vt 0.218271 0.409437
vt 0.218271 0.417495
vt 0.218221 0.413468
vt 0.974324 0.463597
vt 0.986970 0.466152
vt 0.445913 0.402033
vt 0.433288 0.399103
vt 0.433288 0.366457
vt 0.444663 0.366616
vt 0.712754 0.596718
vt 0.724326 0.596807
vt 0.724721 0.630821
vt 0.712754 0.636971
vt 0.574153 0.844156
vt 0.561206 0.842773
vt 0.905311 0.635561
vt 0.891766 0.635276
vt 0.915322 0.392438
vt 0.902907 0.394159
s 1
usemtl Bark
f 7/1/1 8/2/1 14/3/1 13/4/1
f 9/5/2 15/6/2 14/7/2 8/8/2
f 10/9/3 16/10/3 15/11/3 9/12/3
f 11/13/4 17/14/4 16/10/4 10/9/4
f 11/15/5 12/16/6 18/17/5 17/18/5
f 12/19/7 7/1/7 13/4/7 18/20/7
f 13/4/8 14/3/8 20/21/8 19/22/8
f 21/23/9 20/24/9 14/25/9 15/26/9
f 16/27/10 22/28/11 21/23/11 15/26/10
f 16/10/12 17/14/12 23/29/12 22/30/12
f 17/31/13 18/32/13 24/33/13 23/34/13
f 18/32/14 13/35/14 19/36/14 24/33/14
f 20/21/15 26/37/16 25/38/15 19/22/15
f 21/39/17 27/40/17 26/41/17 20/42/17
f 21/39/18 22/43/18 28/44/18 27/40/18
f 22/30/19 23/29/19 29/45/19 28/46/19
f 24/33/20 30/47/20 29/48/21 23/34/20
f 24/49/22 19/50/23 25/51/23 30/52/23
f 26/37/24 32/53/25 31/54/25 25/38/25
f 26/55/26 27/56/26 33/57/27 32/58/26
f 28/44/28 34/59/29 33/60/28 27/40/28
f 29/45/30 35/61/31 34/62/30 28/46/32
f 29/48/33 30/47/33 36/63/33 35/64/34
f 30/47/35 25/65/35 31/66/36 36/63/35
f 31/54/37 32/53/37 38/67/37 37/68/37
f 33/57/38 39/69/38 38/70/39 32/58/38
f 34/59/40 40/71/41 39/72/40 33/60/41
f 35/61/42 41/73/43 40/74/43 34/62/42
f 36/63/44 42/75/45 41/76/46 35/64/44
f 36/77/47 31/78/48 37/79/48 42/80/47
f 37/68/49 38/67/49 44/81/49 43/82/49
f 38/70/50 39/69/50 45/83/50 44/84/50
f 39/69/51 40/85/51 46/86/51 45/83/51
f 40/74/52 41/73/52 47/87/52 46/88/53
f 42/75/54 48/89/54 47/90/55 41/76/54
f 37/91/56 43/92/56 48/89/56 42/75/56
f 50/93/57 56/94/57 55/95/57 49/96/57
f 50/97/58 51/98/58 57/99/58 56/100/58
f 51/98/59 52/101/59 58/102/59 57/99/59
f 52/103/60 53/104/60 59/105/60 58/106/60
f 54/107/61 60/108/61 59/109/61 53/110/62
f 49/111/63 55/112/63 60/108/63 54/107/64
f 62/113/65 61/114/65 55/95/65 56/94/66
f 57/99/67 63/115/68 62/116/67 56/100/67
f 63/115/69 57/99/69 58/102/69 64/117/69
f 64/118/70 58/106/70 59/105/70 65/119/71
f 60/108/72 66/120/72 65/121/72 59/109/72
f 55/112/73 61/122/73 66/120/73 60/108/73
f 62/113/74 68/123/74 67/124/74 61/114/74
f 63/115/75 69/125/75 68/126/75 62/116/75
f 63/115/76 64/117/76 70/127/76 69/125/76
f 64/118/77 65/119/77 71/128/77 70/129/78
f 66/120/79 72/130/79 71/131/79 65/121/79
f 66/120/80 61/122/80 67/132/80 72/130/80
f 73/133/81 67/124/81 68/123/81 74/134/81
f 68/126/82 69/125/82 75/135/82 74/136/82
f 70/127/83 76/137/83 75/135/83 69/125/83
f 77/138/84 76/139/84 70/129/84 71/128/84
f 71/131/85 72/130/85 78/140/85 77/141/86
f 72/130/87 67/132/87 73/142/88 78/140/88
f 82/143/89 81/144/90 79/145/89 80/146/90
f 82/147/91 84/148/91 83/149/91 81/150/91
f 84/151/92 86/152/92 85/153/92 83/154/92
f 80/155/93 79/156/93 85/157/93 86/158/93
f 92/159/94 96/160/94 95/161/95 91/162/94
f 92/163/96 93/164/96 97/165/96 96/166/96
f 94/167/97 98/168/97 97/169/97 93/170/97
f 91/171/98 95/172/98 98/173/98 94/174/98
f 96/160/99 100/175/100 99/176/99 95/161/99
f 96/177/101 97/178/101 101/179/101 100/180/101
f 97/169/102 98/168/103 102/181/102 101/182/103
f 95/183/104 99/184/104 102/185/105 98/186/104
f 106/187/106 105/188/106 103/189/106 104/190/106
f 108/191/107 107/192/107 105/193/107 106/194/107
f 108/195/108 110/196/108 109/197/108 107/198/108
f 110/199/109 104/200/110 103/201/109 109/202/110
f 111/203/111 112/204/112 116/205/111 115/206/112
f 112/207/113 113/208/113 117/209/113 116/210/113
f 114/211/114 118/212/114 117/213/114 113/214/114
f 114/215/115 111/216/116 115/217/115 118/218/116
f 115/206/117 116/205/117 120/219/117 119/220/117
f 117/209/118 121/221/118 120/222/118 116/210/118
f 117/213/119 118/212/119 122/223/119 121/224/119
f 118/218/120 115/217/120 119/225/120 122/226/120
f 124/227/121 123/228/121 119/229/121 120/230/121
f 125/231/122 124/232/122 120/222/122 121/221/122
f 125/233/123 121/234/124 122/235/124 126/236/124
f 126/237/125 122/226/125 119/225/125 123/238/125
f 123/228/126 124/227/126 128/239/126 127/240/127
f 125/231/128 129/241/129 128/242/129 124/232/128
f 129/243/130 125/233/131 126/236/130 130/244/131
f 127/245/132 130/246/132 126/237/132 123/238/132
f 127/240/133 128/239/134 132/247/133 131/248/134
f 129/241/135 133/249/135 132/250/135 128/242/135
f 130/244/136 134/251/136 133/252/137 129/243/136
f 127/245/138 131/253/138 134/254/138 130/246/138
f 135/255/139 136/256/139 140/257/139 139/258/139
f 136/259/140 137/260/140 141/261/140 140/262/140
f 138/263/141 142/264/141 141/265/141 137/266/141
f 138/267/142 135/268/142 139/269/142 142/270/142
f 139/258/143 140/257/143 144/271/143 143/272/143
f 141/261/144 145/273/144 144/274/144 140/262/144
f 141/265/145 142/264/146 146/275/146 145/276/145
f 142/277/147 139/278/148 143/279/147 146/280/148
f 144/271/149 148/281/149 147/282/149 143/272/149
f 145/283/150 149/284/150 148/285/150 144/286/150
f 145/276/151 146/275/151 150/287/151 149/288/151
f 146/289/152 143/290/152 147/291/152 150/292/152
f 152/293/153 151/294/153 147/282/153 148/281/153
f 153/295/154 152/296/154 148/285/154 149/284/154
f 153/297/155 149/288/155 150/287/155 154/298/155
f 147/291/156 151/299/156 154/300/156 150/292/156
f 155/301/157 151/294/157 152/293/157 156/302/157
f 153/295/158 157/303/158 156/304/158 152/296/158
f 153/297/159 154/298/160 158/305/160 157/306/159
f 151/299/161 155/307/161 158/308/161 154/300/161
f 160/309/162 162/310/162 161/311/162 159/312/162
f 164/313/163 163/314/163 161/315/163 162/316/163
f 166/317/164 165/318/164 163/319/164 164/320/164
f 166/321/165 160/322/165 159/323/165 165/324/165
f 159/312/166 161/311/166 168/325/166 167/326/166
f 161/315/167 163/314/167 169/327/167 168/328/167
f 165/318/168 170/329/168 169/330/168 163/319/168
f 165/324/169 159/323/169 167/331/169 170/332/169
f 167/326/170 168/325/170 172/333/170 171/334/170
f 169/327/171 173/335/172 172/336/172 168/328/172
f 169/330/173 170/329/173 174/337/173 173/338/173
f 167/331/174 171/339/175 174/340/174 170/332/175
f 172/333/176 176/341/176 175/342/176 171/334/176
f 173/335/177 177/343/177 176/344/177 172/336/177
f 173/338/178 174/337/179 178/345/179 177/346/179
f 178/347/180 174/340/180 171/339/180 175/348/181
f 176/341/182 180/349/182 179/350/182 175/342/182
f 180/351/183 176/344/183 177/343/183 181/352/183
f 178/345/184 182/353/184 181/354/185 177/346/184
f 178/347/186 175/348/187 179/355/186 182/356/186
f 180/357/188 184/358/188 183/359/188 179/360/188
f 185/361/189 184/362/189 180/351/189 181/352/189
f 181/363/190 182/364/190 186/365/190 185/366/190
f 182/356/191 179/355/191 183/367/192 186/368/191
f 1/369/193 2/370/193 190/371/193 189/372/194
f 2/373/195 3/374/195 191/375/195 190/376/195
f 4/377/196 193/378/196 191/375/197 3/374/196
f 4/379/198 5/380/198 194/381/199 193/382/198
f 6/383/200 195/384/200 194/385/200 5/386/200
f 1/387/201 189/388/201 195/384/201 6/383/201
f 189/372/202 196/389/202 8/2/202 7/1/203
f 197/390/204 9/5/204 8/8/204 196/391/204
f 193/382/205 10/9/205 9/12/205 197/392/205
f 193/382/206 194/381/206 11/13/206 10/9/206
f 194/393/207 195/394/207 12/16/207 11/15/207
f 189/388/208 7/395/208 12/396/208 195/384/208
f 189/372/209 190/371/209 50/93/209 49/96/209
f 191/397/210 51/398/210 50/399/210 190/400/210
f 52/101/211 51/98/212 191/375/211 193/378/211
f 193/382/213 197/392/213 53/104/213 52/103/213
f 196/391/214 54/401/215 53/402/215 197/390/214
f 189/372/216 49/96/216 54/403/216 196/389/216
f 199/404/217 198/405/217 103/406/217 105/407/217
f 200/408/218 199/409/219 105/193/220 107/192/219
f 192/410/221 200/411/222 107/412/222 109/413/223
f 192/414/224 109/202/224 103/201/224 198/415/224
f 111/203/225 198/416/225 201/417/225 112/204/225
f 200/418/226 113/208/226 112/207/226 201/419/226
f 200/411/227 192/410/227 114/211/227 113/214/227
f 198/415/228 111/216/229 114/215/228 192/414/229
f 131/248/230 132/247/230 205/420/231 208/421/231
f 132/250/232 133/249/232 206/422/232 205/423/232
f 134/251/233 209/424/233 206/425/233 133/252/233
f 134/254/234 131/253/234 208/426/234 209/427/234
f 198/405/235 199/404/235 136/256/235 135/255/235
f 200/408/236 137/428/236 136/429/236 199/409/236
f 200/430/237 201/431/237 138/263/237 137/266/237
f 198/432/238 135/268/238 138/267/238 201/433/239
f 156/302/240 203/434/240 202/435/240 155/301/240
f 203/436/241 156/304/241 157/303/241 204/437/241
f 158/305/242 207/438/242 204/439/242 157/306/242
f 207/440/243 158/308/243 155/307/244 202/441/243
f 205/442/245 206/443/245 187/444/245 208/445/245
f 206/446/246 209/447/246 208/448/246
f 206/449/247 208/450/247 187/451/247
f 203/452/248 204/453/248 188/454/248 202/455/248
f 204/456/249 207/457/249 202/458/249
f 204/459/250 202/460/250 188/461/250
f 93/170/251 89/462/252 90/463/251 94/167/251
f 88/464/253 89/465/254 93/466/254 92/467/253
f 91/468/255 94/469/255 90/470/255 87/471/255
f 88/472/256 92/159/256 91/162/256 87/473/256
f 83/154/257 85/153/257 90/463/257 89/462/257
f 83/149/258 89/474/258 88/475/258 81/150/258
f 79/156/259 87/476/259 90/477/259 85/157/259
f 79/145/260 81/144/260 88/472/260 87/473/260
